<?xml version="1.0" encoding="utf-8"?>
<!-- Generator: Adobe Illustrator 21.0.0, SVG Export Plug-In . SVG Version: 6.00 Build 0)  -->
<svg version="1.1" id="Camada_1" xmlns="http://www.w3.org/2000/svg" xmlns:xlink="http://www.w3.org/1999/xlink" x="0px" y="0px"
	 viewBox="0 0 250 249" style="enable-background:new 0 0 250 249;" xml:space="preserve">
<style type="text/css">
	.st0{fill:#FFFFFF;}
	.st1{fill:none;stroke:#FFFFFF;stroke-width:9.8584;stroke-miterlimit:10;}
</style>
<g>
	<path class="st0" d="M77,196.3l124.9-34.1c4.9-1.4,7.9-6.5,6.5-11.4l0,0c-0.6-2.4-2.2-4.4-4.4-5.6l-6-3.4c-2.1-1.2-3.7-3.2-4.4-5.6
		l-11-40.1c-4.4-16.1-15-29.9-29.4-38.3l0,0c-30.8-17.9-70.3-7.2-87.7,23.8l-0.1,0.1c-8.2,14.6-10.4,31.9-6,48.1l11,40.1
		c0.6,2.3,0.3,4.8-0.8,6.9l-3.3,6c-1.2,2.1-1.5,4.6-0.8,6.9l0,0.1C67,194.8,72.1,197.7,77,196.3z"/>
	
		<ellipse transform="matrix(0.9646 -0.2636 0.2636 0.9646 -8.5681 28.8325)" class="st0" cx="103.1" cy="46.3" rx="11.2" ry="11.2"/>
	<path class="st0" d="M118.5,190.6c3.4,12.3,16.1,19.6,28.5,16.2s19.6-16.1,16.2-28.5L118.5,190.6z"/>
</g>
<circle class="st1" cx="123.1" cy="125.4" r="110.3"/>
</svg>
